<?xml version="1.0" standalone="no"?><!DOCTYPE svg PUBLIC "-//W3C//DTD SVG 1.1//EN" "http://www.w3.org/Graphics/SVG/1.1/DTD/svg11.dtd"><svg t="1699277826614" class="icon" viewBox="0 0 1024 1024" version="1.1" xmlns="http://www.w3.org/2000/svg" p-id="4058" xmlns:xlink="http://www.w3.org/1999/xlink" width="200" height="200"><path d="M274.870857 164.425143c-2.706286 15.36-7.826286 29.696-14.921143 42.642286l185.051429 135.094857a173.860571 173.860571 0 0 1 175.762286-27.794286l84.553142-126.756571A111.542857 111.542857 0 0 1 684.544 62.610286a107.958857 107.958857 0 0 1 145.481143-50.980572 111.469714 111.469714 0 0 1 51.565714 147.456c-22.820571 48.274286-76.214857 71.68-125.805714 58.294857L670.72 345.014857c32.987429 28.598857 55.515429 69.485714 60.854857 115.565714l139.337143 13.897143c14.409143-29.037714 45.787429-47.542857 80.018286-43.885714 44.178286 4.534857 76.434286 44.105143 72.045714 88.356571-4.388571 44.178286-43.885714 76.288-88.064 71.68a80.896 80.896 0 0 1-69.193143-57.636571L729.014857 519.314286c-9.508571 46.08-36.278857 85.577143-73.142857 111.323428l99.693714 142.116572c30.061714-13.019429 64.950857-14.409143 97.718857-1.170286 65.828571 26.697143 98.011429 102.765714 71.826286 169.910857a127.561143 127.561143 0 0 1-166.692571 73.216c-65.828571-26.697143-98.011429-102.765714-71.826286-169.910857 5.485714-13.970286 13.019429-26.550857 22.235429-37.302857L602.477714 655.798857a174.592 174.592 0 0 1-174.738285-50.249143L296.667429 703.341714c10.678857 20.333714 16.676571 43.593143 16.676571 68.242286 0 80.457143-64.219429 145.700571-143.433143 145.700571-79.286857 0-143.506286-65.243429-143.506286-145.700571s64.219429-145.773714 143.506286-145.773714c34.011429 0 65.243429 11.995429 89.819429 32.109714L395.410286 556.617143a182.272 182.272 0 0 1-15.798857-74.605714c0-35.108571 9.874286-67.876571 26.916571-95.597715l-185.051429-135.094857c-29.549714 22.235429-67.949714 32.402286-107.227428 25.234286A139.995429 139.995429 0 0 1 2.121143 114.468571 138.020571 138.020571 0 0 1 162.742857 2.194286a139.995429 139.995429 0 0 1 112.128 162.157714z" fill="#757D8A" p-id="4059"></path></svg>